# xmcd
#
# Track frame offsets:
#	150
#	10558
#	29495
#	50120
#	69853
#	89923
#	115743
#	131333
#	147163
#	167473
#	187125
#	202563
#	224710
#
# Disc length: 3266 seconds
#
# Revision: 2
# Processed by: cddbd v1.5.2PL0 Copyright (c) Steve Scherf et al.
# Submitted via: audiograbber 1.83.01
#
DISCID=b70cc00d
DTITLE=Vaughan, Stevie Ray - Looking at you
DYEAR=1987
DGENRE=Blues
TTITLE0=I'm looking at you
TTITLE1=Look at little sister
TTITLE2=Pride and joy
TTITLE3=Change it
TTITLE4=Come on
TTITLE5=Cold shot
TTITLE6=Love struck baby
TTITLE7=The warn
TTITLE8=Get high
TTITLE9=Testify
TTITLE10=Mary had a little lamb
TTITLE11=Couldn't stand the weather
TTITLE12=Pride and joy
EXTD=
EXTT0=
EXTT1=
EXTT2=
EXTT3=
EXTT4=
EXTT5=
EXTT6=
EXTT7=
EXTT8=
EXTT9=
EXTT10=
EXTT11=
EXTT12=
PLAYORDER=
